<?xml version="1.0" encoding="utf-8"?>
<svg viewBox="0 -960 960 960" width="960px" height="960px" xmlns="http://www.w3.org/2000/svg">
  <rect style="fill: #252118;" x="0" y="-960" width="960" height="960" rx="256" ry="256"/>
  <path d="M 263.158 -230.772 C 238.281 -230.772 217.278 -239.338 200.147 -256.469 C 183.015 -273.601 174.45 -294.605 174.45 -319.48 L 174.45 -640.52 C 174.45 -665.395 183.015 -686.399 200.147 -703.531 C 217.278 -720.662 238.281 -729.228 263.158 -729.228 L 376.507 -729.228 C 388.241 -729.228 399.505 -726.998 410.301 -722.539 C 421.096 -718.081 430.718 -711.627 439.166 -703.179 L 480 -662.345 L 696.842 -662.345 C 721.718 -662.345 742.721 -653.779 759.853 -636.647 C 776.984 -619.516 785.55 -598.512 785.55 -573.636 L 785.55 -319.48 C 785.55 -294.605 776.984 -273.601 759.853 -256.469 C 742.721 -239.338 721.718 -230.772 696.842 -230.772 L 263.158 -230.772 Z" style="fill: #d9a6a6;"/>
</svg>