<?xml version="1.0" encoding="utf-8"?>
<svg viewBox="0 -960 960 960" width="960px" height="960px" xmlns="http://www.w3.org/2000/svg">
  <ellipse style="fill: #121616;" cx="480" cy="-480" rx="480" ry="480" transform="matrix(1, 0, 0, 1, 0, 2.2737367544323206e-13)"/>
  <path d="M 786.922 -613.162 L 355.161 -613.162 C 322.025 -613.162 292.103 -604.878 265.396 -588.31 C 238.689 -571.742 225.336 -548.373 225.336 -518.205 L 225.336 -290.455 L 283.943 -518.205 C 288.393 -533.536 296.801 -545.777 309.166 -554.927 C 321.53 -564.077 335.626 -568.651 351.452 -568.651 L 734.25 -568.651 C 757.001 -568.651 775.548 -559.254 789.89 -540.461 C 804.233 -521.666 807.941 -500.894 801.018 -478.145 L 753.539 -291.196 C 746.12 -266.467 735.116 -249.034 720.526 -238.896 C 705.936 -228.756 685.783 -223.687 660.065 -223.687 L 225.336 -223.687 C 206.543 -223.687 190.222 -230.611 176.373 -244.46 C 162.524 -258.307 155.601 -274.628 155.601 -293.422 L 155.601 -665.834 C 155.601 -685.123 162.524 -701.691 176.373 -715.539 C 190.222 -729.387 206.543 -736.312 225.336 -736.312 L 390.029 -736.312 C 398.931 -736.312 407.834 -734.332 416.735 -730.376 C 425.637 -726.419 433.303 -721.226 439.733 -714.797 L 471.633 -682.898 L 716.446 -682.898 C 735.734 -682.898 752.302 -675.972 766.151 -662.125 C 779.998 -648.276 786.922 -631.957 786.922 -613.162 Z" style="fill: #adabba;"/>
</svg>